<svg width="164" height="34" fill="none" xmlns="http://www.w3.org/2000/svg"><path d="M16.964 1.417a15.53 15.53 0 00-8.641 2.626 15.577 15.577 0 00-5.728 6.995A15.613 15.613 0 005.97 28.022a15.522 15.522 0 0016.95 3.373 15.559 15.559 0 006.978-5.743 15.606 15.606 0 002.618-8.66A15.602 15.602 0 0027.96 5.977a15.542 15.542 0 00-10.996-4.56zm-2.202 22.21l-1.148 3.4a10.654 10.654 0 01-5.225-3.891 10.689 10.689 0 010-12.422 10.654 10.654 0 015.225-3.892l1.14 3.407a7.067 7.067 0 00-3.46 2.584 7.09 7.09 0 00.005 8.234 7.067 7.067 0 003.463 2.58zm5.344 3.48l-1.07-3.43a7.074 7.074 0 003.534-2.556 7.097 7.097 0 00.049-8.308 7.074 7.074 0 00-3.503-2.598L20.228 6.8a10.661 10.661 0 015.295 3.914 10.696 10.696 0 01-.076 12.542 10.66 10.66 0 01-5.341 3.85z" fill="#00BEF0"/><path d="M158.364 19.726l1.71 2.056a7.764 7.764 0 01-5.742 2.356 8.577 8.577 0 01-3.975-.793c-2.272-1.127-3.419-3.433-3.419-6.224 0-4.247 2.849-7.338 7.074-7.338 4.673 0 6.945 3.512 6.646 8.073h-10.686a3.514 3.514 0 001.639 2.791c.883.512 1.894.76 2.913.714a5.266 5.266 0 003.84-1.635zm-8.363-4.283h7.551a3.51 3.51 0 00-1.255-2.272 3.492 3.492 0 00-2.471-.783 3.744 3.744 0 00-3.825 3.02v.035zm-71.758 8.338h3.854l-6.062-7.038 5.97-6.618H78.2l-4.553 5.297H72.31v-5.297h-2.956v13.656h2.956v-5.432h1.354l4.58 5.432zm12.552-11.207c-2.465 0-4.103 1.927-4.103 4.376 0 2.448 1.638 4.375 4.103 4.375s4.09-1.884 4.09-4.375c0-2.492-1.525-4.376-4.09-4.376zm.513-2.791c3.84 0 6.66 3.02 6.66 7.138 0 4.119-2.806 7.188-6.66 7.188a5.688 5.688 0 01-4.402-1.763v7.138h-2.97V10.125h2.898v1.642a5.444 5.444 0 014.474-1.984zm38.796.342h-12.196v2.713h4.616v10.921h2.978V12.838h4.609l-.007-2.713zm-62.803 0H55.105v2.713h4.61v10.921h2.97V12.838h4.609l.007-2.713zM51.486 16.95a4.292 4.292 0 00-1.083-3.302 4.275 4.275 0 00-3.17-1.41 4.267 4.267 0 00-3.17 1.41 4.287 4.287 0 00-1.082 3.302 4.291 4.291 0 001.083 3.3 4.273 4.273 0 004.903 1.042 4.273 4.273 0 002.327-2.577c.187-.569.252-1.17.192-1.765zm-11.554 0a7.33 7.33 0 012.218-5.03 7.301 7.301 0 0110.174 0 7.33 7.33 0 012.218 5.03 7.33 7.33 0 01-2.218 5.03 7.301 7.301 0 01-10.174 0 7.33 7.33 0 01-2.218-5.03zm104.591-6.825v13.656h-2.914v-8.802l-7.124 8.809h-2.336V10.125h2.92v8.788l7.124-8.788h2.33zm-28.652 13.656h-2.956V10.125h2.956v13.656zm-7.594-4.662a1.972 1.972 0 00-.554-1.479 1.96 1.96 0 00-1.462-.59h-2.971v4.204h2.992a2.01 2.01 0 001.995-2.135zm2.935 0c0 2.734-1.973 4.662-4.858 4.662h-6.006V10.125h2.942v4.412h3.327a4.263 4.263 0 013.367 1.223 4.29 4.29 0 011.256 3.36h-.028z" fill="#000"/></svg>