<svg width="18" height="18" fill="none" xmlns="http://www.w3.org/2000/svg"><mask id="path-1-inside-1_601_34048" fill="#fff"><path fill-rule="evenodd" clip-rule="evenodd" d="M8.59 2.274a5.463 5.463 0 112.085 10.51h-.018a5.26 5.26 0 01-5.44-5.445v-.017A5.463 5.463 0 018.59 2.275zm6.661.48A6.463 6.463 0 004.217 7.312a6.26 6.26 0 001.488 4.271L.867 16.422l.708.707 4.837-4.837a6.26 6.26 0 004.271 1.492 6.463 6.463 0 004.568-11.03z"/></mask><path d="M14.544 3.46l-.708.707.708-.707zM8.59 2.274l-.383-.924.383.924zm7.135 7.141l.924.383-.924-.383zm-5.05 3.37l.001-1v1zm-.009 0l-.035-1h.036v1zm-.009 0l-.035-1 .035 1zm-3.905-1.54l.708-.706-.708.707zM5.216 7.34l1 .035-1-.035zm0-.01h1v.036l-1-.035zm0-.008h-1 1zM8.208 1.35L7.825.426l.382.924zm7.044 1.403l.708-.706-.708.706zM4.217 7.313l1 .001v.017l-.001.016-1-.034zm1.488 4.271l.762-.648.598.703-.653.652-.707-.707zM.867 16.422l-.707.707-.707-.707.707-.707.707.707zm.708.707l.707.707-.707.707-.708-.707.708-.707zm4.837-4.837l-.707-.707.653-.653.703.599-.65.76zm4.271 1.492l-.033-.999h.033v1zm5.966-3.986l-.924-.383.924.383zm-2.813-5.63a4.463 4.463 0 00-4.864-.97L8.207 1.35a6.463 6.463 0 017.044 1.403l-1.415 1.414zm.966 4.864a4.463 4.463 0 00-.966-4.865l1.415-1.414a6.463 6.463 0 011.398 7.045l-1.847-.766zm-4.126 2.752a4.463 4.463 0 004.126-2.752l1.847.766a6.463 6.463 0 01-5.975 3.986l.002-2zm-.009 0h.009l-.002 2h-.008l.001-2zm-.045.001h.01l.07 1.999h-.01l-.07-1.999zM7.46 10.54a4.26 4.26 0 003.162 1.246l.07 2a6.26 6.26 0 01-4.647-1.832L7.46 10.54zM6.216 7.375A4.26 4.26 0 007.46 10.54l-1.415 1.414a6.26 6.26 0 01-1.828-4.65l1.999.072zm0-.009v.01l-2-.072.001-.01 1.999.072zm0-.044v.009h-2v-.01h2zm2.756-4.124a4.463 4.463 0 00-2.755 4.124h-2a6.463 6.463 0 013.99-5.972l.765 1.848zM7.825.426c2.79-1.155 6-.515 8.134 1.62L14.544 3.46A5.463 5.463 0 008.59 2.274L7.825.426zM3.217 7.311A7.463 7.463 0 017.825.426l.765 1.848a5.463 5.463 0 00-3.373 5.04l-2-.003zm1.726 4.921a7.26 7.26 0 01-1.726-4.954l1.999.069a5.26 5.26 0 001.25 3.59l-1.523 1.295zM.16 15.715l4.838-4.838 1.414 1.414-4.837 4.838L.16 15.715zm.707 2.121L.16 17.13l1.415-1.414.707.707-1.415 1.414zM7.12 13l-4.837 4.837-1.415-1.414 4.838-4.837L7.12 13zm3.598 1.785a7.26 7.26 0 01-4.954-1.731l1.298-1.522a5.26 5.26 0 003.589 1.254l.067 1.999zm6.856-4.603a7.463 7.463 0 01-6.889 4.604l-.001-2a5.463 5.463 0 005.042-3.37l1.848.767zM15.96 2.048a7.463 7.463 0 011.614 8.134l-1.848-.766a5.463 5.463 0 00-1.181-5.955l1.415-1.413z" fill="#333" mask="url(#path-1-inside-1_601_34048)"/></svg>