<svg width="8" height="14" fill="none" xmlns="http://www.w3.org/2000/svg"><mask id="path-1-inside-1_610_6618" fill="#fff"><path fill-rule="evenodd" clip-rule="evenodd" d="M6.941.057L.352 6.647 0 7l.353.353 6.59 6.59.706-.707L1.413 7 7.648.764 6.941.057z"/></mask><path d="M.352 6.646l.707.707-.707-.707zM6.942.057L6.233-.65l.707-.707.707.707-.707.707zM-.002 7l-.708.707L-1.416 7l.707-.707L0 7zm.353.353l.707-.707-.707.707zm6.59 6.59l.706.707-.707.707-.707-.707.707-.707zm.706-.707l.708-.708.707.708-.707.707-.708-.707zM1.413 7l-.707.707L-.001 7l.707-.707.707.707zM7.648.764l.708-.707.707.707-.707.707-.708-.707zM-.355 5.94l6.59-6.59L7.647.764 1.06 7.354-.355 5.938zm-.354.354l.354-.354 1.414 1.414-.353.354L-.71 6.293zm.354 1.768l-.354-.354L.706 6.293l.353.353-1.414 1.415zm6.59 6.589l-6.59-6.59 1.414-1.414 6.59 6.59-1.415 1.414zm2.12-.707l-.707.707-1.414-1.414.707-.708 1.415 1.415zM2.12 6.293l6.236 6.235-1.415 1.415L.706 7.707 2.12 6.293zM8.356 1.47L2.12 7.707.706 6.293 6.94.057l1.415 1.414zM7.648-.65l.708.707L6.94 1.471 6.234.764 7.648-.65z" fill="#333" mask="url(#path-1-inside-1_610_6618)"/></svg>